<svg width="120" height="30" viewBox="0 0 85 32" fill="none" xmlns="http://www.w3.org/2000/svg">
	<path d="M34.305 15.088C33.8552 15.1076 33.513 15.0391 33.2783 14.8827C33.0534 14.7262 32.941 14.4867 32.941 14.164C32.941 13.8707 33.0143 13.6556 33.161 13.5187C33.3076 13.372 33.5374 13.2889 33.8503 13.2693L34.3196 13.24C35.0236 13.2107 35.3756 12.7951 35.3756 11.9933V5.71598C35.3756 5.37376 35.4832 5.09998 35.6983 4.89464C35.9134 4.68931 36.1921 4.58664 36.5343 4.58664C36.8765 4.58664 37.1503 4.68931 37.3556 4.89464C37.5707 5.09998 37.6783 5.37376 37.6783 5.71598V11.964C37.6783 13.9 36.7103 14.9316 34.7743 15.0587L34.305 15.088ZM48.9123 4.58664C49.235 4.58664 49.4941 4.6942 49.6896 4.90931C49.895 5.11464 49.9976 5.38353 49.9976 5.71598V14.0467C49.9976 14.3693 49.9047 14.6236 49.719 14.8093C49.5332 14.9951 49.2887 15.088 48.9856 15.088C48.6923 15.088 48.4527 14.9951 48.267 14.8093C48.0812 14.6236 47.9883 14.3693 47.9883 14.0467V8.86932L45.9056 12.7853C45.7687 13.0396 45.6172 13.2253 45.451 13.3427C45.2945 13.46 45.1038 13.5187 44.879 13.5187C44.6638 13.5187 44.4732 13.46 44.307 13.3427C44.1407 13.2253 43.9892 13.0396 43.8523 12.7853L41.7696 8.94265V14.0467C41.7696 14.3596 41.6767 14.6138 41.491 14.8093C41.3052 14.9951 41.0607 15.088 40.7576 15.088C40.4643 15.088 40.2247 14.9951 40.0389 14.8093C39.8532 14.6236 39.7603 14.3693 39.7603 14.0467V5.71598C39.7603 5.38353 39.8581 5.11464 40.0536 4.90931C40.2589 4.6942 40.5229 4.58664 40.8456 4.58664C41.3149 4.58664 41.6718 4.83598 41.9163 5.33464L44.8936 10.9813L47.8563 5.33464C48.1203 4.83598 48.4723 4.58664 48.9123 4.58664Z" fill="black"/>
	<path d="M-0.69792 21.5495V20.4688H0.317702V21.5495H-0.69792ZM-2.07812 32.474H-1.73958C-0.888892 32.474 -0.463546 31.9097 -0.463546 30.7812V23.3203H0.10937V30.8333C0.10937 31.5365 -0.0425397 32.0703 -0.346358 32.4349C-0.641496 32.7995 -1.07118 32.9818 -1.63542 32.9818H-2.07812V32.474ZM2.86978 26.6537C2.86978 27.5651 3.08245 28.3073 3.5078 28.8802C3.94183 29.4531 4.50606 29.7396 5.2005 29.7396C5.88626 29.7396 6.44616 29.4531 6.88019 28.8802C7.31421 28.2986 7.53123 27.5564 7.53123 26.6537C7.53123 25.7335 7.30987 24.9957 6.86717 24.4401C6.42446 23.8759 5.8689 23.5938 5.2005 23.5938C4.5321 23.5938 3.97655 23.8715 3.53384 24.4271C3.09113 24.9827 2.86978 25.7248 2.86978 26.6537ZM2.27082 26.6537C2.27082 25.6207 2.53124 24.77 3.05207 24.1016C3.5729 23.4332 4.28905 23.099 5.2005 23.099C6.0946 23.099 6.8064 23.4332 7.33591 24.1016C7.86543 24.77 8.13018 25.6207 8.13018 26.6537C8.13018 27.1137 8.06942 27.5521 7.94789 27.9688C7.82636 28.3854 7.64841 28.7674 7.41404 29.1146C7.18834 29.4531 6.88453 29.7266 6.50258 29.9349C6.12064 30.1345 5.68661 30.2344 5.2005 30.2344C4.25432 30.2344 3.5295 29.8828 3.02603 29.1797C2.52256 28.4766 2.27082 27.6346 2.27082 26.6537ZM9.36716 28.8281L9.82289 28.5677C10.3177 29.349 11.0251 29.7396 11.9453 29.7396C12.5182 29.7396 12.9826 29.6224 13.3385 29.388C13.6944 29.145 13.8724 28.8238 13.8724 28.4245C13.8724 28.2682 13.8507 28.1293 13.8073 28.0078C13.7638 27.8863 13.677 27.7734 13.5468 27.6693C13.4166 27.5651 13.3081 27.4826 13.2213 27.4219C13.1345 27.3611 12.9739 27.2873 12.7395 27.2005C12.5139 27.1137 12.3489 27.053 12.2448 27.0182C12.1493 26.9835 11.954 26.9228 11.6588 26.8359C11.355 26.7405 11.0989 26.6493 10.8906 26.5625C10.6823 26.4757 10.4609 26.3585 10.2265 26.2109C10.0008 26.0547 9.82723 25.8681 9.7057 25.6511C9.59285 25.4254 9.53643 25.1693 9.53643 24.8828C9.53643 24.336 9.75778 23.9019 10.2005 23.5807C10.6519 23.2596 11.2335 23.099 11.9453 23.099C12.4661 23.099 12.9349 23.2292 13.3515 23.4896C13.7769 23.75 14.0894 24.0669 14.289 24.4401L13.8724 24.7005C13.6814 24.3794 13.4166 24.1146 13.0781 23.9063C12.7395 23.6979 12.3619 23.5938 11.9453 23.5938C11.3897 23.5938 10.947 23.7153 10.6172 23.9583C10.296 24.1927 10.1354 24.5052 10.1354 24.8958C10.1354 25.3125 10.3003 25.638 10.6302 25.8724C10.9687 26.1068 11.4288 26.3021 12.0104 26.4583C12.3489 26.5538 12.6354 26.645 12.8698 26.7318C13.1041 26.8186 13.3559 26.9401 13.625 27.0964C13.8941 27.2439 14.098 27.4306 14.2369 27.6563C14.3845 27.8819 14.4583 28.138 14.4583 28.4245C14.4583 28.9366 14.2369 29.3663 13.7942 29.7135C13.3602 30.0608 12.7439 30.2344 11.9453 30.2344C10.7821 30.2344 9.92271 29.7656 9.36716 28.8281ZM16.2942 21.5495V20.4688H17.2968V21.5495H16.2942ZM16.5286 30V23.3203H17.1015V30H16.5286ZM19.7968 28.4115C19.7968 28.776 19.9487 29.0885 20.2525 29.349C20.565 29.6094 20.9991 29.7396 21.5546 29.7396C22.2317 29.7396 22.8176 29.5226 23.3124 29.0885C23.8072 28.6458 24.0546 28.0816 24.0546 27.3958V26.1979C23.6293 26.3455 22.9435 26.4931 21.9973 26.6406C20.5303 26.875 19.7968 27.4653 19.7968 28.4115ZM19.1979 28.4375C19.1979 27.8385 19.4149 27.3524 19.8489 26.9792C20.2916 26.5972 21.0034 26.3325 21.9843 26.1849C22.9652 26.0373 23.6553 25.8811 24.0546 25.7162V25.3646C24.0546 24.8438 23.8767 24.4184 23.5208 24.0886C23.1735 23.75 22.6831 23.5807 22.0494 23.5807C21.6328 23.5807 21.2334 23.6806 20.8515 23.8802C20.4696 24.0712 20.1484 24.336 19.888 24.6745L19.4843 24.375C19.7621 24.0018 20.1267 23.6979 20.5781 23.4636C21.0295 23.2205 21.5156 23.099 22.0364 23.099C22.9218 23.099 23.5772 23.3203 24.0025 23.763C24.4279 24.2057 24.6406 24.7917 24.6406 25.5208V30H24.0676V28.6719C23.9114 29.0885 23.5989 29.4531 23.1301 29.7656C22.6614 30.0781 22.1189 30.2344 21.5025 30.2344C20.7907 30.2344 20.2265 30.0651 19.8098 29.7266C19.4019 29.388 19.1979 28.9583 19.1979 28.4375ZM26.9583 30V20.2214H27.5572V24.6224H27.5702C27.7265 24.2231 28.0129 23.8715 28.4296 23.5677C28.8463 23.2552 29.328 23.099 29.8749 23.099C30.5607 23.099 31.0859 23.316 31.4504 23.75C31.8237 24.184 32.0103 24.8264 32.0103 25.6771V30H31.4374V25.7943C31.4374 24.3273 30.8819 23.5938 29.7708 23.5938C29.1978 23.5938 28.6857 23.8281 28.2343 24.2969C27.7829 24.757 27.5572 25.3038 27.5572 25.9375V30H26.9583ZM37.5572 30V23.3203H38.1301V24.5182H38.1431C38.2733 24.1537 38.5121 23.8281 38.8593 23.5417C39.2065 23.2465 39.6535 23.099 40.2004 23.099C41.164 23.099 41.7586 23.6632 41.9843 24.7917C42.0016 24.6875 42.0537 24.553 42.1405 24.388C42.236 24.2231 42.3662 24.0408 42.5311 23.8412C42.7047 23.6328 42.9435 23.4592 43.2473 23.3203C43.5598 23.1728 43.9027 23.099 44.2759 23.099C44.927 23.099 45.4001 23.3116 45.6952 23.737C45.999 24.1623 46.1509 24.8047 46.1509 25.6641V30H45.552V25.7552C45.552 25.0434 45.4521 24.5052 45.2525 24.1406C45.0615 23.7761 44.6883 23.5938 44.1327 23.5938C43.5858 23.5938 43.1171 23.8195 42.7264 24.2708C42.3445 24.7136 42.1535 25.2908 42.1535 26.0026V30H41.5546V25.7552C41.5546 24.3143 41.0685 23.5938 40.0962 23.5938C39.5233 23.5938 39.0546 23.8108 38.69 24.2448C38.3254 24.6702 38.1431 25.2257 38.1431 25.9115V30H37.5572ZM48.5207 26.6537C48.5207 27.5651 48.7334 28.3073 49.1587 28.8802C49.5928 29.4531 50.157 29.7396 50.8514 29.7396C51.5372 29.7396 52.0971 29.4531 52.5311 28.8802C52.9651 28.2986 53.1822 27.5564 53.1822 26.6537C53.1822 25.7335 52.9608 24.9957 52.5181 24.4401C52.0754 23.8759 51.5198 23.5938 50.8514 23.5938C50.183 23.5938 49.6275 23.8715 49.1848 24.4271C48.7421 24.9827 48.5207 25.7248 48.5207 26.6537ZM47.9217 26.6537C47.9217 25.6207 48.1822 24.77 48.703 24.1016C49.2238 23.4332 49.94 23.099 50.8514 23.099C51.7455 23.099 52.4573 23.4332 52.9868 24.1016C53.5164 24.77 53.7811 25.6207 53.7811 26.6537C53.7811 27.1137 53.7203 27.5521 53.5988 27.9688C53.4773 28.3854 53.2993 28.7674 53.065 29.1146C52.8393 29.4531 52.5355 29.7266 52.1535 29.9349C51.7716 30.1345 51.3375 30.2344 50.8514 30.2344C49.9053 30.2344 49.1804 29.8828 48.677 29.1797C48.1735 28.4766 47.9217 27.6346 47.9217 26.6537ZM55.6952 30V20.2214H56.3071V27.1615L59.7056 23.3203H60.4868L58.1431 25.9636L60.8123 30H60.0962L57.7394 26.3932L56.3071 27.9818V30H55.6952ZM61.9972 26.6537C61.9972 27.5651 62.2099 28.3073 62.6353 28.8802C63.0693 29.4531 63.6335 29.7396 64.328 29.7396C65.0137 29.7396 65.5736 29.4531 66.0076 28.8802C66.4417 28.2986 66.6587 27.5564 66.6587 26.6537C66.6587 25.7335 66.4373 24.9957 65.9946 24.4401C65.5519 23.8759 64.9964 23.5938 64.328 23.5938C63.6596 23.5938 63.104 23.8715 62.6613 24.4271C62.2186 24.9827 61.9972 25.7248 61.9972 26.6537ZM61.3983 26.6537C61.3983 25.6207 61.6587 24.77 62.1795 24.1016C62.7004 23.4332 63.4165 23.099 64.328 23.099C65.2221 23.099 65.9339 23.4332 66.4634 24.1016C66.9929 24.77 67.2576 25.6207 67.2576 26.6537C67.2576 27.1137 67.1969 27.5521 67.0753 27.9688C66.9538 28.3854 66.7759 28.7674 66.5415 29.1146C66.3158 29.4531 66.012 29.7266 65.63 29.9349C65.2481 30.1345 64.8141 30.2344 64.328 30.2344C63.3818 30.2344 62.657 29.8828 62.1535 29.1797C61.65 28.4766 61.3983 27.6346 61.3983 26.6537ZM69.1587 30V20.2214H69.7576V24.8828C69.8705 24.4401 70.1266 24.0321 70.5259 23.6589C70.9252 23.2856 71.4113 23.099 71.9842 23.099C72.8088 23.099 73.4729 23.4202 73.9764 24.0625C74.4885 24.6962 74.7446 25.5599 74.7446 26.6537C74.7446 27.8342 74.4668 28.7283 73.9113 29.3359C73.3644 29.9349 72.7177 30.2344 71.9712 30.2344C71.4417 30.2344 70.9816 30.0738 70.591 29.7526C70.209 29.4227 69.9312 29.0191 69.7576 28.5417V30H69.1587ZM69.7316 26.6537C69.7316 27.6085 69.9443 28.3637 70.3696 28.9193C70.795 29.4661 71.3114 29.7396 71.9191 29.7396C72.5788 29.7396 73.117 29.4618 73.5337 28.9063C73.9503 28.3507 74.1587 27.5998 74.1587 26.6537C74.1587 25.7162 73.9503 24.974 73.5337 24.4271C73.1257 23.8715 72.5918 23.5938 71.9321 23.5938C71.3331 23.5938 70.8167 23.8672 70.3826 24.4141C69.9486 24.961 69.7316 25.7075 69.7316 26.6537ZM76.6977 26.6537C76.6977 27.5651 76.9104 28.3073 77.3357 28.8802C77.7698 29.4531 78.334 29.7396 79.0284 29.7396C79.7142 29.7396 80.2741 29.4531 80.7081 28.8802C81.1421 28.2986 81.3592 27.5564 81.3592 26.6537C81.3592 25.7335 81.1378 24.9957 80.6951 24.4401C80.2524 23.8759 79.6968 23.5938 79.0284 23.5938C78.36 23.5938 77.8045 23.8715 77.3618 24.4271C76.9191 24.9827 76.6977 25.7248 76.6977 26.6537ZM76.0988 26.6537C76.0988 25.6207 76.3592 24.77 76.88 24.1016C77.4008 23.4332 78.117 23.099 79.0284 23.099C79.9225 23.099 80.6343 23.4332 81.1638 24.1016C81.6934 24.77 81.9581 25.6207 81.9581 26.6537C81.9581 27.1137 81.8974 27.5521 81.7758 27.9688C81.6543 28.3854 81.4763 28.7674 81.242 29.1146C81.0163 29.4531 80.7125 29.7266 80.3305 29.9349C79.9486 30.1345 79.5145 30.2344 79.0284 30.2344C78.0823 30.2344 77.3574 29.8828 76.854 29.1797C76.3505 28.4766 76.0988 27.6346 76.0988 26.6537Z" fill="black"/>
	</svg>
